<?xml version="1.0" encoding="UTF-8"?>
<svg width="128" height="128" viewBox="0 0 128 128" fill="none" xmlns="http://www.w3.org/2000/svg">
  <circle cx="64" cy="64" r="64" fill="#F7931A"/>
  <path d="M88.8881 58.5458C87.6148 49.4903 79.2225 46.1926 68.7842 47.6637L65.6865 35.9514L59.271 37.3248L62.3114 48.8372C60.5358 49.3282 58.6821 49.8765 56.8285 50.3675L53.7881 38.7551L47.3726 40.1284L50.4703 51.8407C48.9992 52.2744 47.4708 52.7654 46.0402 53.1991L46.0402 53.1991L37.2417 55.2089L38.7701 62.2179C38.7701 62.2179 43.463 60.981 43.3957 61.0957C45.7872 60.5474 46.9932 61.9781 47.3696 63.0841L50.9612 76.5492C51.1332 76.5492 51.3625 76.5064 51.6346 76.4065C51.4626 76.4637 51.2907 76.521 51.1188 76.5782L53.846 86.3955C53.846 87.8262 53.2405 89.9359 51.4626 90.3123C51.5872 90.3696 46.8371 91.605 46.8371 91.605L44.9834 99.2541L53.2405 97.3432C54.8835 96.9095 56.4691 96.4758 58.0547 96.0421L61.2097 107.926L67.6252 106.553L64.5275 94.7795C66.3627 94.3885 68.1979 93.9548 69.9758 93.5784L73.0162 105.237L79.4317 103.864L76.2767 91.9814C89.3791 89.5899 98.6348 83.6926 97.1065 70.8521C95.8905 60.4374 90.7989 56.379 83.4814 56.0599C88.9453 54.4171 92.6767 50.6857 88.8881 58.5458ZM81.8385 80.5566C84.3872 90.3696 68.784 93.8975 63.7174 95.2135L59.5003 79.1831C64.5668 77.8672 79.2898 70.3037 81.8385 80.5566ZM72.8014 57.9518C75.1355 66.9122 62.2542 69.9526 58.0547 71.0586L54.2089 56.781C58.4083 55.6749 70.4672 48.6652 72.8014 57.9518Z" fill="white"/>
</svg> 