<?xml version="1.0" encoding="UTF-8"?>
<svg width="128" height="128" viewBox="0 0 128 128" fill="none" xmlns="http://www.w3.org/2000/svg">
  <circle cx="64" cy="64" r="64" fill="#4DA3F5"/>
  <path d="M64 96C81.6731 96 96 81.6731 96 64C96 46.3269 81.6731 32 64 32C46.3269 32 32 46.3269 32 64C32 81.6731 46.3269 96 64 96Z" fill="white"/>
  <path d="M64 88C77.2548 88 88 77.2548 88 64C88 50.7452 77.2548 40 64 40C50.7452 40 40 50.7452 40 64C40 77.2548 50.7452 88 64 88Z" fill="#4DA3F5"/>
  <path d="M64 78C71.732 78 78 71.732 78 64C78 56.268 71.732 50 64 50C56.268 50 50 56.268 50 64C50 71.732 56.268 78 64 78Z" fill="white"/>
</svg> 