<svg width="512" height="512" viewBox="0 0 512 512" fill="none" xmlns="http://www.w3.org/2000/svg">
  <circle cx="256" cy="256" r="240" fill="#F0F4F9" stroke="#D1D5DB" stroke-width="16"/>
  <path d="M256 120C183.1 120 124 179.1 124 252C124 324.9 183.1 384 256 384C328.9 384 388 324.9 388 252C388 179.1 328.9 120 256 120ZM256 354C199.8 354 154 308.2 154 252C154 195.8 199.8 150 256 150C312.2 150 358 195.8 358 252C358 308.2 312.2 354 256 354Z" fill="#94A3B8"/>
  <path d="M256 180C224.9 180 200 204.9 200 236V268C200 299.1 224.9 324 256 324C287.1 324 312 299.1 312 268V236C312 204.9 287.1 180 256 180ZM282 268C282 282.4 270.4 294 256 294C241.6 294 230 282.4 230 268V236C230 221.6 241.6 210 256 210C270.4 210 282 221.6 282 236V268Z" fill="#64748B"/>
</svg> 