<?xml version="1.0" encoding="UTF-8"?>
<svg width="128" height="128" viewBox="0 0 128 128" fill="none" xmlns="http://www.w3.org/2000/svg">
  <circle cx="64" cy="64" r="64" fill="#2775CA"/>
  <path d="M64 92C66.7 92 69 89.7 69 87V77H79C81.2 77 83 75.2 83 73C83 70.8 81.2 69 79 69H69V59H79C81.2 59 83 57.2 83 55C83 52.8 81.2 51 79 51H69V41C69 38.3 66.7 36 64 36C61.3 36 59 38.3 59 41V51H49C46.8 51 45 52.8 45 55C45 57.2 46.8 59 49 59H59V69H49C46.8 69 45 70.8 45 73C45 75.2 46.8 77 49 77H59V87C59 89.7 61.3 92 64 92Z" fill="white"/>
  <path d="M64 108C88.3005 108 108 88.3005 108 64C108 39.6995 88.3005 20 64 20C39.6995 20 20 39.6995 20 64C20 88.3005 39.6995 108 64 108Z" stroke="white" stroke-width="4"/>
</svg> 